<?xml version="1.0" encoding="UTF-8"?>
<svg id="volume" xmlns="http://www.w3.org/2000/svg" viewBox="0 0 880.63 870.42">
  <defs>
    <style>
      .cls-1 {
        fill: #fff;
      }

      .cls-2 {
        fill: #7a1318;
      }
    </style>
  </defs>
  <rect class="cls-2" x="215.93" y="212.36" width="448.78" height="448.78" rx="76.22" ry="76.22"/>
  <g id="sound">
    <rect class="cls-1" x="266.45" y="386.98" width="97" height="97" rx="26.61" ry="26.61"/>
    <path id="play" class="cls-1" d="M292.38,419.92l115.83-66.88c11.76-6.79,26.47,1.7,26.47,15.28v133.75c0,13.58-14.71,22.08-26.47,15.28l-115.83-66.88c-11.76-6.79-11.76-23.77,0-30.57Z"/>
  </g>
  <path class="cls-1" d="M471.2,493.51h0c-2.58-2.58-2.76-6.72-.4-9.51,11.54-13.65,17.83-30.74,17.83-48.8s-6.29-35.15-17.83-48.79c-2.36-2.79-2.18-6.92.4-9.51h0c2.9-2.9,7.67-2.74,10.32.39,13.71,16.19,21.18,36.48,21.18,57.91s-7.47,41.72-21.18,57.91c-2.65,3.13-7.42,3.29-10.32.39Z"/>
  <path class="cls-1" d="M510.09,518.08h0c-3.67-3.67-3.92-9.55-.57-13.51,16.41-19.4,25.35-43.7,25.35-69.36s-8.94-49.96-25.35-69.36c-3.35-3.97-3.1-9.84.57-13.51h0c4.12-4.12,10.9-3.89,14.67.55,19.49,23.01,30.11,51.86,30.11,82.32s-10.62,59.31-30.11,82.32c-3.76,4.44-10.55,4.67-14.67.55Z"/>
  <path class="cls-1" d="M564.79,559.23h0c-5.5-5.5-5.87-14.29-.85-20.22,24.56-29.03,37.93-65.4,37.93-103.8s-13.38-74.77-37.93-103.8c-5.02-5.93-4.64-14.73.85-20.22h0c6.16-6.16,16.31-5.82,21.95.83,29.17,34.44,45.06,77.61,45.06,123.2s-15.89,88.76-45.06,123.2c-5.63,6.65-15.79,6.99-21.95.83Z"/>
</svg>