<?xml version="1.0" encoding="UTF-8"?>
<svg id="charging_icon" data-name="charging icon" xmlns="http://www.w3.org/2000/svg" viewBox="0 0 880.63 870.42">
  <defs>
    <style>
      .cls-1 {
        fill: #fff;
      }

      .cls-2 {
        fill: #7a1318;
      }
    </style>
  </defs>
  <rect class="cls-2" x="215.93" y="210.82" width="448.78" height="448.78" rx="76.22" ry="76.22"/>
  <path class="cls-1" d="M425.89,261.97h108.44c5.93,0,9.21,6.89,5.47,11.49l-81.51,100.25c-3.74,4.6-.47,11.49,5.47,11.49h80.38c5.63,0,8.99,6.28,5.86,10.96l-141.77,212.22c-4.18,6.26-13.95,2.48-12.83-4.97l25.22-166.53c.65-4.26-2.65-8.1-6.97-8.1h-77.16c-5.44,0-8.83-5.91-6.08-10.6l89.39-152.72c1.26-2.16,3.58-3.49,6.08-3.49Z"/>
</svg>